<svg width="101" height="38" viewBox="0 0 101 38" fill="none" xmlns="http://www.w3.org/2000/svg">
<path d="M29.5454 8.33813L30.4521 28.6526H26.1794L25.8626 20.9028L15.7461 35.9911L11.3548 21.8287L4.63372 37.8056H0L11.9243 9.45887L17.1561 26.2799L29.5454 8.33813Z" fill="white"/>
<path d="M19.9871 0C30.317 0 38.691 8.38998 38.691 18.7395C38.691 26.5706 33.8967 33.2797 27.0883 36.0812L27.0883 33.4329C32.5275 30.7893 36.2776 25.2032 36.2776 18.7395C36.2776 9.7254 28.9841 2.418 19.9871 2.418C10.9901 2.418 3.69661 9.7254 3.69661 18.7395C3.69661 22.5064 4.97026 25.9752 7.10964 28.7373L5.46025 28.7371L5.45997 30.5442C2.84832 27.322 1.2832 23.2139 1.2832 18.7395C1.2832 8.38998 9.65723 0 19.9871 0Z" fill="white"/>
<path fill-rule="evenodd" clip-rule="evenodd" d="M27.2927 33.3524L26.1598 32.7839H23.6836V36.574H26.1598L27.2927 35.9911V33.3524Z" fill="white"/>
<path d="M23.6842 33.3525H21.2207V34.3001H23.6842V33.3525Z" fill="white"/>
<path d="M23.6842 35.0581H21.2207V36.0056H23.6842V35.0581Z" fill="white"/>
<path d="M49.5511 15.3417L48.7317 13.4891L48.3576 15.3417L47.1463 21.4516H45.169L47.8766 8.35889H48.0904L51.6887 15.4307L52.7574 17.7999L53.8262 15.4307L57.3533 8.35889H57.5492L60.3637 21.4516H58.4042L57.0861 15.3417L56.6942 13.4891L55.9816 15.3417L52.8109 21.4516H52.704L49.5511 15.3417ZM65.4811 21.6298C64.7448 21.6298 64.0649 21.4546 63.4414 21.1043C62.818 20.7539 62.3192 20.2552 61.9451 19.608C61.571 18.9607 61.384 18.2037 61.384 17.3368C61.384 16.4817 61.5473 15.7336 61.8739 15.0923C62.2005 14.451 62.6666 13.9522 63.2722 13.596C63.8779 13.2397 64.5904 13.0616 65.4098 13.0616C65.8848 13.0616 66.3302 13.1447 66.7458 13.311C67.1614 13.4772 67.5118 13.6821 67.7968 13.9255C68.0818 14.169 68.2718 14.4095 68.3668 14.647L68.4024 13.2753H70.2372V21.4516H68.4202L68.3846 20.0088C68.1827 20.4363 67.8146 20.8133 67.2802 21.1399C66.7458 21.4665 66.1461 21.6298 65.4811 21.6298ZM65.8017 20.0266C66.4786 20.0266 67.0486 19.792 67.5118 19.3229C67.9749 18.8539 68.2065 18.2393 68.2065 17.4793V17.3546C68.2065 16.8439 68.0996 16.3867 67.8858 15.983C67.6721 15.5792 67.3811 15.2645 67.013 15.0389C66.6449 14.8132 66.2411 14.7004 65.8017 14.7004C65.0417 14.7004 64.4538 14.9468 64.0382 15.4397C63.6225 15.9325 63.4147 16.5708 63.4147 17.3546C63.4147 18.1502 63.6196 18.7945 64.0293 19.2873C64.439 19.7801 65.0298 20.0266 65.8017 20.0266ZM72.354 13.2753H74.2778V14.8785C74.4679 14.3323 74.7766 13.8929 75.2041 13.5604C75.6317 13.2278 76.1185 13.0616 76.6648 13.0616C77.0448 13.0616 77.3061 13.0972 77.4486 13.1685L77.1814 15.1101C77.0745 15.0389 76.843 15.0032 76.4867 15.0032C75.9285 15.0032 75.4209 15.1814 74.9637 15.5376C74.5064 15.8939 74.2778 16.4639 74.2778 17.2477V21.4516H72.354V13.2753ZM78.4649 13.2753H80.6559L82.4195 16.9627L82.9895 18.4412L83.5595 16.9627L85.3052 13.2753H87.4428L83.1498 21.4516H82.7757L78.4649 13.2753ZM92.3236 21.6298C91.3498 21.6298 90.5364 21.4368 89.8832 21.0508C89.2301 20.6649 88.7491 20.1483 88.4403 19.5011C88.1316 18.8539 87.9772 18.1443 87.9772 17.3724C87.9772 16.5055 88.1583 15.7455 88.5205 15.0923C88.8827 14.4391 89.3844 13.9374 90.0257 13.5871C90.667 13.2367 91.3914 13.0616 92.1989 13.0616C93.4577 13.0616 94.3929 13.4089 95.0045 14.1037C95.6161 14.7984 95.9219 15.7751 95.9219 17.0339C95.9219 17.3546 95.9041 17.6871 95.8685 18.0315H89.9901C90.1207 18.7559 90.379 19.2784 90.765 19.599C91.1509 19.9197 91.6883 20.08 92.3771 20.08C92.9471 20.08 93.4162 20.0325 93.7843 19.9375C94.1525 19.8425 94.4909 19.7119 94.7997 19.5456L95.3875 20.9172C95.0906 21.1072 94.6869 21.2735 94.1762 21.416C93.6656 21.5585 93.048 21.6298 92.3236 21.6298ZM94.0515 16.6955C94.0634 15.9592 93.9031 15.4397 93.5706 15.1368C93.238 14.834 92.763 14.6826 92.1455 14.6826C90.8986 14.6826 90.1801 15.3535 89.9901 16.6955H94.0515ZM98.0951 8.35889H100.001V21.4516H98.0951V8.35889ZM44.9785 25.3814H46.2918C46.6165 25.3814 46.8608 25.4817 47.0248 25.6822C47.1888 25.8828 47.2707 26.1264 47.2707 26.4129C47.2707 26.6994 47.1888 26.9422 47.0248 27.1411C46.8608 27.3401 46.6165 27.4396 46.2918 27.4396H45.4274V28.6717H44.9785V25.3814ZM46.287 25.7968H45.4274V27.0241H46.2631C46.451 27.0241 46.5918 26.9644 46.6857 26.8451C46.7797 26.7257 46.8266 26.5816 46.8266 26.4129C46.8266 26.2441 46.7813 26.0993 46.6905 25.9783C46.5998 25.8573 46.4653 25.7968 46.287 25.7968ZM48.0558 27.0337C48.0558 26.5625 48.2166 26.163 48.5382 25.835C48.8597 25.5071 49.2529 25.3432 49.7177 25.3432C50.1857 25.3432 50.5813 25.5071 50.9044 25.835C51.2275 26.163 51.3891 26.5625 51.3891 27.0337C51.3891 27.5017 51.2275 27.8996 50.9044 28.2276C50.5813 28.5555 50.1857 28.7194 49.7177 28.7194C49.2529 28.7194 48.8597 28.5555 48.5382 28.2276C48.2166 27.8996 48.0558 27.5017 48.0558 27.0337ZM48.8533 26.1407C48.6177 26.3858 48.5 26.6835 48.5 27.0337C48.5 27.3839 48.617 27.6808 48.851 27.9243C49.085 28.1679 49.3739 28.2896 49.7177 28.2896C50.0615 28.2896 50.3512 28.1679 50.5868 27.9243C50.8224 27.6808 50.9402 27.3839 50.9402 27.0337C50.9402 26.6835 50.8224 26.3858 50.5868 26.1407C50.3512 25.8955 50.0615 25.773 49.7177 25.773C49.3771 25.773 49.0889 25.8955 48.8533 26.1407ZM55.7128 25.3814H56.1904L55.0777 28.6717H54.6909L54.1083 26.6182L53.5304 28.6717H53.1436L52.031 25.3814H52.5085L53.3347 27.9554L53.9411 25.8255H54.2802L54.8867 27.9554L55.7128 25.3814ZM57.1092 25.3814H59.0576V25.7968H57.5533V26.8474H58.8666V27.2629H57.5533V28.2562H59.1053V28.6717H57.1092V25.3814ZM61.5857 27.4253L62.4644 28.6717H61.9248L61.0748 27.4396H60.6545V28.6717H60.2056V25.3814H61.4711C61.7959 25.3814 62.0394 25.4817 62.2018 25.6822C62.3641 25.8828 62.4453 26.1264 62.4453 26.4129C62.4453 26.6803 62.3745 26.9095 62.2328 27.1005C62.0911 27.2916 61.8754 27.3998 61.5857 27.4253ZM61.4568 25.7968H60.6545V27.0241H61.4377C61.6255 27.0241 61.764 26.9652 61.8532 26.8474C61.9423 26.7297 61.9869 26.5848 61.9869 26.4129C61.9869 26.2441 61.9431 26.0993 61.8555 25.9783C61.768 25.8573 61.6351 25.7968 61.4568 25.7968ZM67.7595 25.7777L67.4395 26.0738C67.2103 25.8701 66.9461 25.7682 66.6468 25.7682C66.3061 25.7682 66.018 25.8916 65.7824 26.1383C65.5468 26.385 65.4291 26.6835 65.4291 27.0337C65.4291 27.3839 65.5468 27.6816 65.7824 27.9267C66.018 28.1718 66.3061 28.2944 66.6468 28.2944C66.9461 28.2944 67.1928 28.214 67.387 28.0532C67.5812 27.8925 67.6847 27.6768 67.6974 27.4062H66.7614V27.0194H68.2036C68.2036 27.5829 68.0651 28.0071 67.7881 28.292C67.5112 28.577 67.1307 28.7194 66.6468 28.7194C66.182 28.7194 65.7888 28.5555 65.4673 28.2276C65.1457 27.8996 64.9849 27.5017 64.9849 27.0337C64.9849 26.5625 65.1457 26.163 65.4673 25.835C65.7888 25.5071 66.182 25.3432 66.6468 25.3432C67.0766 25.3432 67.4475 25.488 67.7595 25.7777ZM70.5885 27.4253L71.4672 28.6717H70.9275L70.0775 27.4396H69.6573V28.6717H69.2084V25.3814H70.4739C70.7986 25.3814 71.0421 25.4817 71.2045 25.6822C71.3669 25.8828 71.4481 26.1264 71.4481 26.4129C71.4481 26.6803 71.3772 26.9095 71.2356 27.1005C71.0939 27.2916 70.8782 27.3998 70.5885 27.4253ZM70.4595 25.7968H69.6573V27.0241H70.4404C70.6283 27.0241 70.7668 26.9652 70.8559 26.8474C70.945 26.7297 70.9896 26.5848 70.9896 26.4129C70.9896 26.2441 70.9458 26.0993 70.8583 25.9783C70.7707 25.8573 70.6378 25.7968 70.4595 25.7968ZM72.3478 27.0337C72.3478 26.5625 72.5085 26.163 72.8301 25.835C73.1516 25.5071 73.5448 25.3432 74.0096 25.3432C74.4776 25.3432 74.8732 25.5071 75.1963 25.835C75.5195 26.163 75.681 26.5625 75.681 27.0337C75.681 27.5017 75.5195 27.8996 75.1963 28.2276C74.8732 28.5555 74.4776 28.7194 74.0096 28.7194C73.5448 28.7194 73.1516 28.5555 72.8301 28.2276C72.5085 27.8996 72.3478 27.5017 72.3478 27.0337ZM73.1453 26.1407C72.9097 26.3858 72.7919 26.6835 72.7919 27.0337C72.7919 27.3839 72.9089 27.6808 73.1429 27.9243C73.3769 28.1679 73.6658 28.2896 74.0096 28.2896C74.3535 28.2896 74.6432 28.1679 74.8788 27.9243C75.1144 27.6808 75.2322 27.3839 75.2322 27.0337C75.2322 26.6835 75.1144 26.3858 74.8788 26.1407C74.6432 25.8955 74.3535 25.773 74.0096 25.773C73.669 25.773 73.3809 25.8955 73.1453 26.1407ZM77.3974 28.0795C77.5438 28.2196 77.7221 28.2896 77.9322 28.2896C78.1423 28.2896 78.3206 28.2196 78.4671 28.0795C78.6135 27.9394 78.6867 27.7596 78.6867 27.5399V25.3814H79.1356V27.5399C79.1356 27.8901 79.0186 28.1742 78.7846 28.3923C78.5506 28.6104 78.2665 28.7194 77.9322 28.7194C77.5979 28.7194 77.3138 28.6104 77.0798 28.3923C76.8458 28.1742 76.7288 27.8901 76.7288 27.5399V25.3814H77.1777V27.5399C77.1777 27.7596 77.2509 27.9394 77.3974 28.0795ZM81.7115 25.3814C82.0363 25.3814 82.2806 25.4817 82.4446 25.6822C82.6085 25.8828 82.6905 26.1264 82.6905 26.4129C82.6905 26.6994 82.6085 26.9422 82.4446 27.1411C82.2806 27.3401 82.0363 27.4396 81.7115 27.4396H80.8472V28.6717H80.3983V25.3814H81.7115ZM81.7068 25.7968H80.8472V27.0241H81.6829C81.8707 27.0241 82.0116 26.9644 82.1055 26.8451C82.1994 26.7257 82.2464 26.5816 82.2464 26.4129C82.2464 26.2441 82.201 26.0993 82.1103 25.9783C82.0196 25.8573 81.885 25.7968 81.7068 25.7968Z" fill="white"/>
</svg>
